<svg id="Capa_1" enable-background="new 0 0 512 512" height="512" viewBox="0 0 512 512" width="512" xmlns="http://www.w3.org/2000/svg" xmlns:xlink="http://www.w3.org/1999/xlink"><linearGradient id="lg1"><stop offset="0" stop-color="#00b59c"/><stop offset="1" stop-color="#9cffac"/></linearGradient><linearGradient id="SVGID_1_" gradientUnits="userSpaceOnUse" x1="256" x2="256" xlink:href="#lg1" y1="421" y2="91"/><linearGradient id="SVGID_2_" gradientUnits="userSpaceOnUse" x1="256" x2="256" y1="361" y2="151"><stop offset="0" stop-color="#c3ffe8"/><stop offset=".9973" stop-color="#f0fff4"/></linearGradient><linearGradient id="SVGID_3_" gradientUnits="userSpaceOnUse" x1="256" x2="256" xlink:href="#lg1" y1="301" y2="211"/><g id="money_1_"><g><path d="m497 421h-482c-8.291 0-15-6.709-15-15v-300c0-8.291 6.709-15 15-15h482c8.291 0 15 6.709 15 15v300c0 8.291-6.709 15-15 15z" fill="url(#SVGID_1_)"/></g><g><path d="m376 361h-240c-8.291 0-15-6.709-15-15 0-24.814-20.186-45-45-45-8.291 0-15-6.709-15-15v-60c0-8.291 6.709-15 15-15 24.814 0 45-20.186 45-45 0-8.291 6.709-15 15-15h240c8.291 0 15 6.709 15 15 0 24.814 20.186 45 45 45 8.291 0 15 6.709 15 15v60c0 8.291-6.709 15-15 15-24.814 0-45 20.186-45 45 0 8.291-6.709 15-15 15z" fill="url(#SVGID_2_)"/></g><g><g><circle cx="256" cy="256" fill="url(#SVGID_3_)" r="45"/></g></g></g></svg>