<svg id="Capa_1" enable-background="new 0 0 512 512" height="512" viewBox="0 0 512 512" width="512" xmlns="http://www.w3.org/2000/svg" xmlns:xlink="http://www.w3.org/1999/xlink"><linearGradient id="lg1"><stop offset="0" stop-color="#ffc2cc"/><stop offset="1" stop-color="#fff2f4"/></linearGradient><linearGradient id="SVGID_1_" gradientUnits="userSpaceOnUse" x1="107.776" x2="107.776" xlink:href="#lg1" y1="512" y2="416.447"/><linearGradient id="SVGID_2_" gradientUnits="userSpaceOnUse" x1="404.224" x2="404.224" xlink:href="#lg1" y1="512" y2="416.448"/><linearGradient id="SVGID_3_" gradientUnits="userSpaceOnUse" x1="413.085" x2="413.085" xlink:href="#lg1" y1="196.831" y2="0"/><linearGradient id="SVGID_4_" gradientUnits="userSpaceOnUse" x1="98.915" x2="98.915" xlink:href="#lg1" y1="196.832" y2="0"/><linearGradient id="lg2"><stop offset="0" stop-color="#fd3a84"/><stop offset="1" stop-color="#ffa68d"/></linearGradient><linearGradient id="SVGID_5_" gradientUnits="userSpaceOnUse" x1="256" x2="256" xlink:href="#lg2" y1="481" y2="30"/><linearGradient id="SVGID_6_" gradientUnits="userSpaceOnUse" x1="256" x2="256" xlink:href="#lg1" y1="451" y2="60"/><linearGradient id="SVGID_7_" gradientUnits="userSpaceOnUse" x1="316" x2="316" xlink:href="#lg2" y1="271" y2="120"/><g><path d="m64.975 507.688c-5.903-5.813-5.976-15.31-.163-21.213l64.553-65.553c5.813-5.903 15.31-5.975 21.213-.163 5.903 5.813 5.976 15.31.163 21.213l-64.553 65.553c-5.808 5.898-15.305 5.98-21.213.163z" fill="url(#SVGID_1_)"/><path d="m425.812 507.525-64.553-65.553c-5.813-5.903-5.74-15.4.163-21.213 5.902-5.812 15.4-5.739 21.213.163l64.553 65.553c5.813 5.903 5.74 15.4-.163 21.213-5.898 5.808-15.395 5.744-21.213-.163z" fill="url(#SVGID_2_)"/><path d="m406.5 0c-36.863 0-70.367 18.793-89.624 50.271-4.323 7.066-2.099 16.3 4.968 20.623l118.762 118.762c4.309 7.044 13.535 9.304 20.623 4.968 31.478-19.257 50.271-52.761 50.271-89.624 0-57.897-47.103-105-105-105z" fill="url(#SVGID_3_)"/><path d="m195.124 50.271c-19.257-31.478-52.761-50.271-89.624-50.271-57.897 0-105 47.103-105 105 0 36.863 18.793 70.367 50.271 89.624 7.089 4.338 16.315 2.075 20.623-4.968l118.762-118.761c7.067-4.324 9.291-13.557 4.968-20.624z" fill="url(#SVGID_4_)"/><path d="m255.5 481c-124.351 0-225-100.633-225-225 0-124.617 100.935-226 225-226 124.38 0 226 101.632 226 226 0 124.065-101.383 225-226 225z" fill="url(#SVGID_5_)"/><path d="m255.5 60c-107.523 0-195 87.925-195 196 0 107.523 87.477 195 195 195 108.075 0 196-87.477 196-195 0-108.075-87.925-196-196-196z" fill="url(#SVGID_6_)"/><path d="m376.5 271h-121c-8.284 0-15-6.716-15-15v-121c0-8.284 6.716-15 15-15s15 6.716 15 15v106h106c8.284 0 15 6.716 15 15s-6.716 15-15 15z" fill="url(#SVGID_7_)"/></g></svg>