<svg id="Capa_1" enable-background="new 0 0 512 512" height="512" viewBox="0 0 512 512" width="512" xmlns="http://www.w3.org/2000/svg" xmlns:xlink="http://www.w3.org/1999/xlink"><linearGradient id="SVGID_1_" gradientUnits="userSpaceOnUse" x1="256.25" x2="256.25" y1="512" y2="105"><stop offset="0" stop-color="#fd3a84"/><stop offset="1" stop-color="#ffa68d"/></linearGradient><linearGradient id="SVGID_2_" gradientUnits="userSpaceOnUse" x1="255.75" x2="255.75" y1="512" y2="0"><stop offset="0" stop-color="#ffc2cc"/><stop offset="1" stop-color="#fff2f4"/></linearGradient><g><g><g><path d="m451.25 135c0-8.284-6.716-15-15-15h-105l-15-15h-120l-15 15h-105c-8.284 0-15 6.716-15 15v136l15 44-15 46v136c0 8.284 6.716 15 15 15h135l41-15 49 15h135c8.284 0 15-6.716 15-15v-136l-15-48 15-42z" fill="url(#SVGID_1_)"/></g></g><g><g><path d="m300.75 271v-151h30c33.137 0 60-26.863 60-60v-45c0-8.236-6.644-14.993-14.88-15-52.231-.045-97.641 29.728-120.12 73.198-22.479-43.47-67.888-73.243-120.12-73.198-8.236.007-14.88 6.764-14.88 15v45c0 33.137 26.863 60 60 60h30v151h-150v90h150v151h90v-151h150v-90z" fill="url(#SVGID_2_)"/></g></g></g></svg>