<svg id="Capa_1" enable-background="new 0 0 512 512" height="512" viewBox="0 0 512 512" width="512" xmlns="http://www.w3.org/2000/svg" xmlns:xlink="http://www.w3.org/1999/xlink"><linearGradient id="SVGID_1_" gradientUnits="userSpaceOnUse" x1="256" x2="256" y1="481" y2="91"><stop offset="0" stop-color="#5558ff"/><stop offset="1" stop-color="#00c0ff"/></linearGradient><linearGradient id="SVGID_2_" gradientUnits="userSpaceOnUse" x1="256" x2="256" y1="421" y2="31"><stop offset="0" stop-color="#addcff"/><stop offset=".5028" stop-color="#eaf6ff"/><stop offset="1" stop-color="#eaf6ff"/></linearGradient><g id="Id_card_1_"><path d="m15 91c-8.401 0-15 6.599-15 15v360c0 8.401 6.599 15 15 15h482c8.401 0 15-6.599 15-15v-360c0-8.401-6.599-15-15-15z" fill="url(#SVGID_1_)"/><g><g><path d="m211 271c0-33.091-26.909-60-60-60s-60 26.909-60 60 26.909 60 60 60 60-26.909 60-60zm60-15c0 8.291 6.709 15 15 15h150c8.291 0 15-6.709 15-15s-6.709-15-15-15h-150c-8.291 0-15 6.709-15 15zm165 45h-150c-8.291 0-15 6.709-15 15s6.709 15 15 15h150c8.291 0 15-6.709 15-15s-6.709-15-15-15zm-30 60h-90c-8.291 0-15 6.709-15 15s6.709 15 15 15h90c8.291 0 15-6.709 15-15s-6.709-15-15-15zm-240-30h-15-15c-41.353 0-75 33.647-75 75 0 8.291 6.709 15 15 15h150c8.291 0 15-6.709 15-15 0-41.353-33.647-75-75-75zm30-150h120c8.401 0 15-6.599 15-15s-6.599-15-15-15h-15v-105c0-8.401-6.599-15-15-15h-60c-8.401 0-15 6.599-15 15v105h-15c-8.401 0-15 6.599-15 15s6.599 15 15 15z" fill="url(#SVGID_2_)"/></g></g></g></svg>