<svg id="Capa_1" enable-background="new 0 0 512 512" height="512" viewBox="0 0 512 512" width="512" xmlns="http://www.w3.org/2000/svg" xmlns:xlink="http://www.w3.org/1999/xlink"><linearGradient id="SVGID_1_" gradientUnits="userSpaceOnUse" x1="256" x2="256" y1="332" y2="180"><stop offset="0" stop-color="#addcff"/><stop offset=".5028" stop-color="#eaf6ff"/><stop offset="1" stop-color="#eaf6ff"/></linearGradient><linearGradient id="SVGID_2_" gradientUnits="userSpaceOnUse" x1="256" x2="256" y1="512" y2="0"><stop offset="0" stop-color="#5558ff"/><stop offset="1" stop-color="#00c0ff"/></linearGradient><g><path d="m406 242h-135v-47c0-8.291-6.709-15-15-15s-15 6.709-15 15v47h-135c-8.291 0-15 6.709-15 15v60c0 8.291 6.709 15 15 15s15-6.709 15-15v-45h120v45c0 8.291 6.709 15 15 15s15-6.709 15-15v-45h120v45c0 8.291 6.709 15 15 15s15-6.709 15-15v-60c0-8.291-6.709-15-15-15z" fill="url(#SVGID_1_)"/><g><g><path d="m181 210h150c8.291 0 15-6.709 15-15 0-41.353-33.647-75-75-75h-15-15c-41.353 0-75 33.647-75 75 0 8.291 6.709 15 15 15zm-15 152c0-33.091-26.909-60-60-60s-60 26.909-60 60 26.909 60 60 60 60-26.909 60-60zm150-302c0-33.091-26.909-60-60-60s-60 26.909-60 60 26.909 60 60 60 60-26.909 60-60zm0 302c0-33.091-26.909-60-60-60s-60 26.909-60 60 26.909 60 60 60 60-26.909 60-60zm150 0c0-33.091-26.909-60-60-60s-60 26.909-60 60 26.909 60 60 60 60-26.909 60-60zm-45 60h-15-15c-24.62 0-46.318 12.085-60 30.463-13.682-18.378-35.38-30.463-60-30.463h-15-15c-24.62 0-46.318 12.085-60 30.463-13.682-18.378-35.38-30.463-60-30.463h-15-15c-41.353 0-75 33.647-75 75 0 8.291 6.709 15 15 15h450c8.291 0 15-6.709 15-15 0-41.353-33.647-75-75-75z" fill="url(#SVGID_2_)"/></g></g></g></svg>