<svg id="Capa_1" enable-background="new 0 0 512.007 512.007" height="512" viewBox="0 0 512.007 512.007" width="512" xmlns="http://www.w3.org/2000/svg" xmlns:xlink="http://www.w3.org/1999/xlink"><linearGradient id="lg1"><stop offset="0" stop-color="#fd3a84"/><stop offset="1" stop-color="#ffa68d"/></linearGradient><linearGradient id="SVGID_1_" gradientUnits="userSpaceOnUse" x1="256.004" x2="256.004" xlink:href="#lg1" y1="512.007" y2="0"/><linearGradient id="SVGID_2_" gradientUnits="userSpaceOnUse" x1="256.004" x2="256.004" y1="392.007" y2="122.007"><stop offset="0" stop-color="#ffc8d1"/><stop offset="1" stop-color="#fff6f7"/></linearGradient><linearGradient id="SVGID_3_" gradientUnits="userSpaceOnUse" x1="256.004" x2="256.004" xlink:href="#lg1" y1="317.007" y2="227.007"/><g><g><path d="m256.004 512.007c-1.597 0-3.208-.264-4.746-.776-113.789-37.925-190.254-144.009-190.254-263.965v-172.259c0-8.291 6.709-15 15-15 55.913 0 110.039-16.392 156.563-47.402l15.117-10.078c5.039-3.369 11.602-3.369 16.641 0l15.117 10.078c46.523 31.011 100.649 47.402 156.563 47.402 8.291 0 15 6.709 15 15v172.259c0 119.956-76.465 226.04-190.254 263.965-1.539.513-3.151.776-4.747.776z" fill="url(#SVGID_1_)"/></g><g><path d="m256.004 392.007c-74.443 0-135-60.557-135-135s60.557-135 135-135 135 60.557 135 135-60.557 135-135 135z" fill="url(#SVGID_2_)"/></g><g id="Shield_1_"><g><path d="m241.004 317.007c-3.838 0-7.676-1.465-10.605-4.395l-30-30c-5.859-5.859-5.859-15.352 0-21.211s15.352-5.859 21.211 0l19.395 19.395 49.395-49.395c5.859-5.859 15.352-5.859 21.211 0s5.859 15.352 0 21.211l-60 60c-2.932 2.93-6.769 4.395-10.607 4.395z" fill="url(#SVGID_3_)"/></g></g></g></svg>