<?xml version="1.0"?>
<svg xmlns="http://www.w3.org/2000/svg" height="512px" viewBox="0 0 480 480" width="512px" class=""><g><path d="m480 208h-480v-128l240-80 240 80zm0 0" fill="#006df0" data-original="#006DF0" class="" style="fill:#7621FF" data-old_color="#006df0"/><path d="m40 208h64v160h-64zm0 0" fill="#3d9ae2" data-original="#3D9AE2" class="active-path" style="fill:#9F64FF" data-old_color="#3d9ae2"/><path d="m152 208h64v160h-64zm0 0" fill="#3d9ae2" data-original="#3D9AE2" class="active-path" style="fill:#9F64FF" data-old_color="#3d9ae2"/><path d="m264 208h64v160h-64zm0 0" fill="#3d9ae2" data-original="#3D9AE2" class="active-path" style="fill:#9F64FF" data-old_color="#3d9ae2"/><path d="m376 208h64v160h-64zm0 0" fill="#3d9ae2" data-original="#3D9AE2" class="active-path" style="fill:#9F64FF" data-old_color="#3d9ae2"/><path d="m0 368h480v112h-480zm0 0" fill="#006df0" data-original="#006DF0" class="" style="fill:#7621FF" data-old_color="#006df0"/><g fill="#00e7f0"><path d="m240 176h-24v-32h24c4.417969 0 8-3.582031 8-8s-3.582031-8-8-8c-22.089844 0-40-17.910156-40-40s17.910156-40 40-40h24v32h-24c-4.417969 0-8 3.582031-8 8s3.582031 8 8 8c22.089844 0 40 17.910156 40 40s-17.910156 40-40 40zm0 0" data-original="#00E7F0" class="" style="fill:#C39EFF" data-old_color="#00E7F0"/><path d="m0 144h144v32h-144zm0 0" data-original="#00E7F0" class="" style="fill:#C39EFF" data-old_color="#00E7F0"/><path d="m336 144h144v32h-144zm0 0" data-original="#00E7F0" class="" style="fill:#C39EFF" data-old_color="#00E7F0"/><path d="m0 400h144v32h-144zm0 0" data-original="#00E7F0" class="" style="fill:#C39EFF" data-old_color="#00E7F0"/><path d="m336 400h144v32h-144zm0 0" data-original="#00E7F0" class="" style="fill:#C39EFF" data-old_color="#00E7F0"/></g></g> </svg>
