<?xml version="1.0"?>
<svg xmlns="http://www.w3.org/2000/svg" height="512px" viewBox="0 -48 512 512" width="512px" class=""><g><g fill="#1a87ff"><path d="m256 384c0 17.671875-14.328125 32-32 32s-32-14.328125-32-32 14.328125-32 32-32 32 14.328125 32 32zm0 0" data-original="#1A87FF" class="active-path" style="fill:#14F859" data-old_color="#1A87FF"/><path d="m416 384c0 17.671875-14.328125 32-32 32s-32-14.328125-32-32 14.328125-32 32-32 32 14.328125 32 32zm0 0" data-original="#1A87FF" class="active-path" style="fill:#14F859" data-old_color="#1A87FF"/><path d="m496 48h-389.230469l68.503907 219.199219c.109374.351562.132812.703125.214843 1.058593.152344.558594.265625 1.128907.34375 1.703126.0625.53125.09375 1.0625.089844 1.597656 0 .519531.039063 1.027344 0 1.554687-.050781.578125-.136719 1.15625-.25 1.726563-.070313.359375-.070313.703125-.160156 1.054687l-2.609375 10.402344 325.355468-46.480469c7.875-1.121094 13.730469-7.859375 13.742188-15.816406v-160c0-8.835938-7.164062-16-16-16zm0 0" data-original="#1A87FF" class="active-path" style="fill:#14F859" data-old_color="#1A87FF"/></g><path d="m448 320h-272c-2.933594.539062-5.925781-.597656-7.757812-2.953125-1.835938-2.355469-2.203126-5.535156-.960938-8.246094l8.238281-32.960937c.089844-.351563.089844-.695313.160157-1.054688.113281-.570312.199218-1.148437.25-1.730468 0-.527344 0-1.03125 0-1.550782.003906-.535156-.027344-1.070312-.089844-1.601562-.078125-.574219-.191406-1.140625-.34375-1.703125-.082032-.351563-.105469-.703125-.214844-1.054688l-80-256c-2.121094-6.648437-8.300781-11.160156-15.28125-11.144531h-64c-8.835938 0-16 7.164062-16 16s7.164062 16 16 16h52.230469l75.152343 240.480469-7.152343 28.597656c-3.585938 12.292969-1.039063 25.558594 6.839843 35.648437 7.882813 10.09375 20.136719 15.777344 32.929688 15.273438h272c8.835938 0 16-7.164062 16-16s-7.164062-16-16-16zm0 0" fill="#3b4ee4" data-original="#3B4EE4" class="" style="fill:#1CD655" data-old_color="#3b4ee4"/></g> </svg>
