<svg height="464pt" viewBox="0 0 464 464" width="464pt" xmlns="http://www.w3.org/2000/svg"><path d="m8 408h88v32h-80c-4.417969 0-8-3.582031-8-8zm0 0" fill="#36cd90"/><path d="m328 408v24c0 4.417969-3.582031 8-8 8h-80v-32zm0 0" fill="#36cd90"/><path d="m8 376h88v32h-88zm0 0" fill="#9ee98f"/><path d="m240 376h88v32h-88zm0 0" fill="#9ee98f"/><path d="m8 344h88v32h-88zm0 0" fill="#36cd90"/><path d="m240 344h88v32h-88zm0 0" fill="#36cd90"/><path d="m8 312h88v32h-88zm0 0" fill="#9ee98f"/><path d="m240 312h88v32h-88zm0 0" fill="#9ee98f"/><path d="m8 280h88v32h-88zm0 0" fill="#36cd90"/><path d="m240 280h88v32h-88zm0 0" fill="#36cd90"/><path d="m8 256c0-4.417969 3.582031-8 8-8h80v32h-88zm0 0" fill="#9ee98f"/><path d="m320 248c4.417969 0 8 3.582031 8 8v24h-88v-32zm0 0" fill="#9ee98f"/><path d="m144 0h304c8.835938 0 16 7.164062 16 16v144c0 8.835938-7.164062 16-16 16h-304c-8.835938 0-16-7.164062-16-16v-144c0-8.835938 7.164062-16 16-16zm0 0" fill="#9ee98f"/><path d="m104 224h128c8.835938 0 16 7.164062 16 16v208c0 8.835938-7.164062 16-16 16h-128c-8.835938 0-16-7.164062-16-16v-208c0-8.835938 7.164062-16 16-16zm0 0" fill="#e1e4fb"/><path d="m128 312c-4.417969 0-8-3.582031-8-8v-48c0-4.417969 3.582031-8 8-8s8 3.582031 8 8v48c0 4.417969-3.582031 8-8 8zm0 0" fill="#a7aff2"/><path d="m208 440c-4.417969 0-8-3.582031-8-8v-120c0-4.417969 3.582031-8 8-8s8 3.582031 8 8v120c0 4.417969-3.582031 8-8 8zm0 0" fill="#a7aff2"/><path d="m304 80h-16c-4.417969 0-8-3.582031-8-8s3.582031-8 8-8h24c4.417969 0 8-3.582031 8-8s-3.582031-8-8-8h-8v-8c0-4.417969-3.582031-8-8-8s-8 3.582031-8 8v8c-13.253906 0-24 10.746094-24 24s10.746094 24 24 24h16c4.417969 0 8 3.582031 8 8s-3.582031 8-8 8h-24c-4.417969 0-8 3.582031-8 8s3.582031 8 8 8h8v8c0 4.417969 3.582031 8 8 8s8-3.582031 8-8v-8c13.253906 0 24-10.746094 24-24s-10.746094-24-24-24zm0 0" fill="#36cd90"/><path d="m408 96h-40c-4.417969 0-8-3.582031-8-8s3.582031-8 8-8h40c4.417969 0 8 3.582031 8 8s-3.582031 8-8 8zm0 0" fill="#36cd90"/><path d="m224 96h-40c-4.417969 0-8-3.582031-8-8s3.582031-8 8-8h40c4.417969 0 8 3.582031 8 8s-3.582031 8-8 8zm0 0" fill="#36cd90"/><path d="m456 248c-17.671875 0-32-14.328125-32-32 0-4.417969-3.582031-8-8-8s-8 3.582031-8 8c0 17.671875-14.328125 32-32 32-4.417969 0-8 3.582031-8 8s3.582031 8 8 8c17.671875 0 32 14.328125 32 32 0 4.417969 3.582031 8 8 8s8-3.582031 8-8c0-17.671875 14.328125-32 32-32 4.417969 0 8-3.582031 8-8s-3.582031-8-8-8zm0 0" fill="#ffcf00"/><path d="m88 80c-17.671875 0-32-14.328125-32-32 0-4.417969-3.582031-8-8-8s-8 3.582031-8 8c0 17.671875-14.328125 32-32 32-4.417969 0-8 3.582031-8 8s3.582031 8 8 8c17.671875 0 32 14.328125 32 32 0 4.417969 3.582031 8 8 8s8-3.582031 8-8c0-17.671875 14.328125-32 32-32 4.417969 0 8-3.582031 8-8s-3.582031-8-8-8zm0 0" fill="#ffcf00"/><path d="m168 224h16v240h-16zm0 0" fill="#a7aff2"/><g fill="#36cd90"><path d="m176 0h-32c-8.835938 0-16 7.164062-16 16v32c0 4.417969 3.582031 8 8 8 26.5-.027344 47.972656-21.5 48-48 0-4.417969-3.582031-8-8-8zm0 0"/><path d="m136 120c-4.417969 0-8 3.582031-8 8v32c0 8.835938 7.164062 16 16 16h32c4.417969 0 8-3.582031 8-8-.027344-26.5-21.5-47.972656-48-48zm0 0"/><path d="m448 0h-32c-4.417969 0-8 3.582031-8 8 .027344 26.5 21.5 47.972656 48 48 4.417969 0 8-3.582031 8-8v-32c0-8.835938-7.164062-16-16-16zm0 0"/><path d="m456 120c-26.5.027344-47.972656 21.5-48 48 0 4.417969 3.582031 8 8 8h32c8.835938 0 16-7.164062 16-16v-32c0-4.417969-3.582031-8-8-8zm0 0"/></g></svg>