<?xml version="1.0"?>
<svg xmlns="http://www.w3.org/2000/svg" height="512px" viewBox="0 0 464 464.00076" width="512px" class=""><g><path d="m307.015625 199.199219c-14.980469-24.824219-32.792969-47.828125-53.070313-68.550781-1.515624-1.683594-3.679687-2.648438-5.945312-2.648438h-96c-2.269531 0-4.433594.964844-5.953125 2.65625-47.285156 52.601562-74.046875 85.839844-74.046875 157.34375v104.480469c.042969 39.480469 32.039062 71.476562 71.519531 71.519531h112.960938c11.539062.054688 22.914062-2.734375 33.121093-8.121094 2.820313-1.484375 4.492188-4.5 4.253907-7.679687-.242188-3.179688-2.347657-5.914063-5.359375-6.960938-50.597656-17.648437-83.363282-66.707031-80.277344-120.207031 3.082031-53.5 41.265625-98.472656 93.558594-110.191406 2.453125-.546875 4.503906-2.21875 5.542968-4.507813 1.035157-2.289062.933594-4.933593-.273437-7.140625zm0 0" fill="#49bbee" data-original="#49BBEE" class="" style="fill:#7621FF" data-old_color="#49bbee"/><path d="m280 8c0 48.398438-13.839844 66.320312-23.917969 79.441406-5.441406 7.117188-8.082031 10.71875-8.082031 16.558594 0 4.417969-3.582031 8-8 8h-80c-4.417969 0-8-3.582031-8-8 0-5.839844-2.640625-9.441406-8.078125-16.558594-10.082031-13.121094-23.921875-31.042968-23.921875-79.441406 0-4.417969 3.582031-8 8-8 48.71875 0 56 20.078125 56 32 2.285156 1.855469 5.070312 3 8 3.28125 5.289062.957031 10.710938.957031 16 0 2.988281-.273438 5.8125-1.476562 8.082031-3.441406-.082031-25.917969 47.199219-31.839844 55.917969-31.839844 4.417969 0 8 3.582031 8 8zm0 0" fill="#49bbee" data-original="#49BBEE" class="" style="fill:#7621FF" data-old_color="#49bbee"/><path d="m208 35.28125v28.71875c0 4.417969-3.582031 8-8 8s-8-3.582031-8-8v-28.71875c5.289062.957031 10.710938.957031 16 0zm0 0" fill="#cae8f9" data-original="#CAE8F9"/><path d="m56 104h-16v-16c0-4.417969-3.582031-8-8-8s-8 3.582031-8 8v16h-16c-4.417969 0-8 3.582031-8 8s3.582031 8 8 8h16v16c0 4.417969 3.582031 8 8 8s8-3.582031 8-8v-16h16c4.417969 0 8-3.582031 8-8s-3.582031-8-8-8zm0 0" fill="#ffa91f" data-original="#FFA91F" class=""/><path d="m456 24h-16v-16c0-4.417969-3.582031-8-8-8s-8 3.582031-8 8v16h-16c-4.417969 0-8 3.582031-8 8s3.582031 8 8 8h16v16c0 4.417969 3.582031 8 8 8s8-3.582031 8-8v-16h16c4.417969 0 8-3.582031 8-8s-3.582031-8-8-8zm0 0" fill="#ffa91f" data-original="#FFA91F" class=""/><path d="m248 96h-96c-13.253906 0-24 10.746094-24 24s10.746094 24 24 24h96c13.253906 0 24-10.746094 24-24s-10.746094-24-24-24zm0 0" fill="#8b8992" data-original="#8B8992" class="active-path" style="fill:#371F8E" data-old_color="#8b8992"/><path d="m464 328c0 75.109375-60.890625 136-136 136s-136-60.890625-136-136 60.890625-136 136-136 136 60.890625 136 136zm0 0" fill="#ffdb2d" data-original="#FFDB2D" class="" style="fill:#FFDB2D"/><path d="m432 328c0 57.4375-46.5625 104-104 104s-104-46.5625-104-104 46.5625-104 104-104 104 46.5625 104 104zm0 0" fill="#ffa91f" data-original="#FFA91F" class=""/><path d="m336 320h-16c-8.835938 0-16-7.164062-16-16s7.164062-16 16-16h24c4.417969 0 8-3.582031 8-8s-3.582031-8-8-8h-8v-8c0-4.417969-3.582031-8-8-8s-8 3.582031-8 8v8c-17.671875 0-32 14.328125-32 32s14.328125 32 32 32h16c8.835938 0 16 7.164062 16 16s-7.164062 16-16 16h-32c-4.417969 0-8 3.582031-8 8s3.582031 8 8 8h16v8c0 4.417969 3.582031 8 8 8s8-3.582031 8-8v-8c17.671875 0 32-14.328125 32-32s-14.328125-32-32-32zm0 0" fill="#e67500" data-original="#E67500" class="" style="fill:#E67500"/></g> </svg>
