<?xml version="1.0"?>
<svg xmlns="http://www.w3.org/2000/svg" height="512px" viewBox="0 0 64 64" width="512px" class=""><g><g id="_21_Click" data-name="21 Click"><g fill="#004fac"><path d="m24 12a2 2 0 0 1 -2-2v-8a2 2 0 0 1 4 0v8a2 2 0 0 1 -2 2z" data-original="#004FAC" class="" style="fill:#7621FF" data-old_color="#004FAC"/><path d="m10 26h-8a2 2 0 0 1 0-4h8a2 2 0 0 1 0 4z" data-original="#004FAC" class="" style="fill:#7621FF" data-old_color="#004FAC"/><path d="m12 14a1.99 1.99 0 0 1 -1.414-.586l-6-6a2 2 0 0 1 2.828-2.828l6 6a2 2 0 0 1 -1.414 3.414z" data-original="#004FAC" class="" style="fill:#7621FF" data-old_color="#004FAC"/><path d="m6 44a2 2 0 0 1 -1.414-3.414l6-6a2 2 0 0 1 2.828 2.828l-6 6a1.99 1.99 0 0 1 -1.414.586z" data-original="#004FAC" class="" style="fill:#7621FF" data-old_color="#004FAC"/><path d="m36 14a2 2 0 0 1 -1.414-3.414l6-6a2 2 0 0 1 2.829 2.828l-6 6a1.994 1.994 0 0 1 -1.415.586z" data-original="#004FAC" class="" style="fill:#7621FF" data-old_color="#004FAC"/><path d="m63.414 54.586-12.675-12.675-5.3 3.531-3.531 5.3 12.678 12.672a2 2 0 0 0 2.828 0l6-6a2 2 0 0 0 0-2.828z" data-original="#004FAC" class="" style="fill:#7621FF" data-old_color="#004FAC"/></g><path d="m63.964 31.622a2 2 0 0 0 -1.552-1.579l-38-8a2 2 0 0 0 -2.369 2.369l8 38a2 2 0 0 0 1.579 1.552 2.024 2.024 0 0 0 .378.036 2 2 0 0 0 1.664-.891l11.778-17.667 17.667-11.778a2 2 0 0 0 .855-2.042z" fill="#2488ff" data-original="#2488FF" class="active-path" style="fill:#9F64FF" data-old_color="#2488ff"/></g></g> </svg>
