<?xml version="1.0"?>
<svg xmlns="http://www.w3.org/2000/svg" id="Layer_1" enable-background="new 0 0 64 64" height="512px" viewBox="0 0 64 64" width="512px" class=""><g><path d="m59 19c0-1.654-1.346-3-3-3h-14-4-30c-1.654 0-3 1.346-3 3v36c0 .552.448 1 1 1h18.764l1.789.895c.138.069.292.105.447.105h10c.155 0 .309-.036.447-.105l1.789-.895h18.764c.552 0 1-.448 1-1z" fill="#c8c6cc" data-original="#C8C6CC"/><path d="m55 21c0-.552-.448-1-1-1h-44c-.552 0-1 .448-1 1v30c0 .552.448 1 1 1h44c.552 0 1-.448 1-1z" fill="#fff" data-original="#FFF" class=""/><path d="m55 51c0 .552-.448 1-1 1h-44c-.552 0-1-.448-1-1v-30c0-.552.448-1 1-1h44c.552 0 1 .448 1 1zm-44-1h42v-28h-42z" fill="#8b8992" data-original="#8B8992"/><path d="m64 55c0-.552-.448-1-1-1h-24c-.155 0-.309.036-.447.105l-1.789.895h-9.528l-1.789-.895c-.138-.069-.292-.105-.447-.105h-24c-.552 0-1 .448-1 1v4c0 1.654 1.346 3 3 3h58c1.654 0 3-1.346 3-3z" fill="#8b8992" data-original="#8B8992"/><path d="m49 40c0-1.103-.897-2-2-2h-23c-.552 0-1 .447-1 1v6c0 .553.448 1 1 1h23c1.103 0 2-.897 2-2z" fill="#f0e7dc" data-original="#F0E7DC"/><path d="m49 40c0-1.103-.897-2-2-2h-24v8h24c1.103 0 2-.897 2-2zm-2 4h-22v-4l22 .003z" fill="#ff7a53" data-original="#FF7A53"/><path d="m25 38h-8c-1.103 0-2 .897-2 2v4c0 1.103.897 2 2 2h8z" fill="#ffb74f" data-original="#FFB74F"/><circle cx="32" cy="19" fill="#00a6ff" r="17" data-original="#00A6FF" class="active-path" style="fill:#9F64FF" data-old_color="#00a6ff"/><path d="m49 19c0-4.782-1.992-9.102-5.181-12.194-.003-.003-.003-.008-.005-.011-.084-.114-.189-.203-.304-.27-3.032-2.799-7.068-4.525-11.51-4.525s-8.479 1.727-11.511 4.526c-.115.067-.219.156-.303.269-.003.003-.003.008-.005.011-3.189 3.092-5.181 7.412-5.181 12.194s1.992 9.102 5.181 12.194c.003.003.003.008.005.011.084.114.188.203.304.27 3.031 2.798 7.067 4.525 11.508 4.525h.001.001.001.001.001c4.545-.001 8.669-1.805 11.722-4.721.027-.029.064-.041.088-.074.003-.003.003-.008.005-.011 3.19-3.092 5.182-7.412 5.182-12.194zm-6.131 10.307c-.928-.626-1.888-1.164-2.881-1.613 1.056-2.119 1.817-4.681 1.962-7.695h4.999c-.239 3.597-1.743 6.845-4.08 9.308zm-10.874-25.13c.955.635 3.178 2.311 5.048 5.094-1.606.477-3.287.729-5.043.729-1.767 0-3.458-.254-5.072-.737 1.86-2.779 4.088-4.445 5.067-5.086zm-7.002 4.38c-.809-.355-1.596-.772-2.357-1.256 1.678-1.346 3.651-2.329 5.804-2.856-1.107 1.018-2.347 2.381-3.447 4.112zm10.567-4.112c2.153.527 4.126 1.51 5.804 2.856-.761.485-1.548.902-2.357 1.256-1.1-1.731-2.34-3.094-3.447-4.112zm-3.56 7.555c2.132 0 4.169-.319 6.101-.949.982 1.912 1.7 4.231 1.849 6.949h-15.9c.146-2.729.853-5.05 1.824-6.957 1.938.636 3.985.957 6.126.957zm7.951 8c-.146 2.729-.853 5.05-1.824 6.957-1.939-.636-3.986-.957-6.127-.957-2.132 0-4.169.319-6.101.949-.982-1.912-1.7-4.231-1.849-6.949zm-7.951 8c1.767 0 3.458.254 5.072.737-1.86 2.779-4.087 4.445-5.066 5.086-.955-.635-3.178-2.311-5.048-5.094 1.605-.477 3.286-.729 5.042-.729zm-3.56 5.555c-2.153-.527-4.126-1.51-5.804-2.856.761-.485 1.548-.902 2.357-1.256 1.1 1.731 2.34 3.094 3.447 4.112zm10.567-4.112c.809.355 1.596.772 2.357 1.256-1.678 1.346-3.651 2.329-5.804 2.856 1.107-1.018 2.347-2.381 3.447-4.112zm7.942-11.443h-4.999c-.145-3.013-.907-5.575-1.962-7.695.993-.448 1.954-.987 2.881-1.613 2.337 2.464 3.841 5.712 4.08 9.308zm-25.818-9.307c.928.626 1.888 1.164 2.881 1.613-1.056 2.119-1.817 4.681-1.962 7.695h-4.999c.239-3.597 1.743-6.845 4.08-9.308zm-4.08 11.307h4.999c.145 3.013.907 5.575 1.962 7.695-.993.448-1.954.987-2.881 1.613-2.337-2.464-3.841-5.712-4.08-9.308z" fill="#006ef5" data-original="#006EF5" class="" style="fill:#7621FF" data-old_color="#006ef5"/></g> </svg>
