<svg height="464pt" viewBox="0 0 464 464" width="464pt" xmlns="http://www.w3.org/2000/svg"><path d="m240 56c0 4.417969-3.582031 8-8 8h-32c-17.671875 0-32-14.328125-32-32s14.328125-32 32-32h8c17.671875 0 32 14.328125 32 32zm-40-40c-8.835938 0-16 7.164062-16 16s7.164062 16 16 16h24v-16c0-8.835938-7.164062-16-16-16zm0 0" fill="#c5c9f7"/><path d="m296 32c0 17.671875-14.328125 32-32 32h-32c-4.417969 0-8-3.582031-8-8v-24c0-17.671875 14.328125-32 32-32h8c17.671875 0 32 14.328125 32 32zm-56 16h24c8.835938 0 16-7.164062 16-16s-7.164062-16-16-16h-8c-8.835938 0-16 7.164062-16 16zm0 0" fill="#c5c9f7"/><path d="m160 80h56c4.417969 0 8 3.582031 8 8v112c0 4.417969-3.582031 8-8 8h-56c-4.417969 0-8-3.582031-8-8v-112c0-4.417969 3.582031-8 8-8zm0 0" fill="#ff73af"/><path d="m248 80h56c4.417969 0 8 3.582031 8 8v112c0 4.417969-3.582031 8-8 8h-56c-4.417969 0-8-3.582031-8-8v-112c0-4.417969 3.582031-8 8-8zm0 0" fill="#ff73af"/><path d="m152 48h64c4.417969 0 8 3.582031 8 8v32c0 4.417969-3.582031 8-8 8h-64c-4.417969 0-8-3.582031-8-8v-32c0-4.417969 3.582031-8 8-8zm0 0" fill="#ff328e"/><path d="m248 48h64c4.417969 0 8 3.582031 8 8v32c0 4.417969-3.582031 8-8 8h-64c-4.417969 0-8-3.582031-8-8v-32c0-4.417969 3.582031-8 8-8zm0 0" fill="#ff328e"/><path d="m216 192h-32c-2.121094 0-4.15625.84375-5.65625 2.34375l-64 64c-1.5 1.5-2.34375 3.535156-2.34375 5.65625v56c0 3.234375 1.949219 6.152344 4.9375 7.390625.96875.40625 2.011719.613281 3.0625.609375 2.121094 0 4.15625-.84375 5.65625-2.34375l96-96c1.5-1.5 2.34375-3.535156 2.34375-5.65625v-24c0-4.417969-3.582031-8-8-8zm0 0" fill="#ffe670"/><path d="m219.0625 272.609375c-2.988281-1.253906-6.4375-.566406-8.71875 1.734375l-96 96c-2.285156 2.289062-2.972656 5.730469-1.734375 8.71875s4.15625 4.9375 7.390625 4.9375h56c2.121094 0 4.15625-.84375 5.65625-2.34375l40-40c1.5-1.5 2.34375-3.535156 2.34375-5.65625v-56c0-3.234375-1.949219-6.152344-4.9375-7.390625zm0 0" fill="#ffe670"/><path d="m344 192h-48c-2.121094 0-4.15625.84375-5.65625 2.34375l-48 48c-1.5 1.5-2.34375 3.535156-2.34375 5.65625v56c0 3.234375 1.949219 6.152344 4.9375 7.390625.96875.40625 2.011719.613281 3.0625.609375 2.121094 0 4.15625-.84375 5.65625-2.34375l96-96c1.5-1.5 2.34375-3.535156 2.34375-5.65625v-8c0-4.417969-3.582031-8-8-8zm0 0" fill="#ffe670"/><path d="m347.0625 256.609375c-2.988281-1.238281-6.429688-.554687-8.71875 1.734375l-96 96c-1.5 1.5-2.34375 3.535156-2.34375 5.65625v16c0 4.417969 3.582031 8 8 8h40c2.121094 0 4.15625-.84375 5.65625-2.34375l56-56c1.5-1.5 2.34375-3.535156 2.34375-5.65625v-56c0-3.234375-1.949219-6.152344-4.9375-7.390625zm0 0" fill="#ffe670"/><g fill="#ffd400"><path d="m244.9375 255.390625c.96875.40625 2.011719.613281 3.0625.609375 2.121094 0 4.15625-.84375 5.65625-2.34375l48-48c2.285156-2.289062 2.972656-5.730469 1.734375-8.71875s-4.15625-4.9375-7.390625-4.9375h-48c-4.417969 0-8 3.582031-8 8v48c0 3.234375 1.949219 6.152344 4.9375 7.390625zm0 0"/><path d="m116.9375 271.390625c.96875.40625 2.011719.613281 3.0625.609375 2.121094 0 4.15625-.84375 5.65625-2.34375l64-64c2.285156-2.289062 2.972656-5.730469 1.734375-8.71875s-4.15625-4.9375-7.390625-4.9375h-64c-4.417969 0-8 3.582031-8 8v64c0 3.234375 1.949219 6.152344 4.9375 7.390625zm0 0"/><path d="m219.0625 216.609375c-2.988281-1.238281-6.429688-.554687-8.71875 1.734375l-96 96c-1.5 1.5-2.34375 3.535156-2.34375 5.65625v56c0 3.234375 1.949219 6.152344 4.9375 7.390625.96875.40625 2.011719.613281 3.0625.609375 2.121094 0 4.15625-.84375 5.65625-2.34375l96-96c1.5-1.5 2.34375-3.535156 2.34375-5.65625v-56c0-3.234375-1.949219-6.152344-4.9375-7.390625zm0 0"/><path d="m219.0625 328.609375c-2.988281-1.238281-6.429688-.554687-8.71875 1.734375l-40 40c-2.285156 2.289062-2.972656 5.730469-1.734375 8.71875s4.15625 4.9375 7.390625 4.9375h40c4.417969 0 8-3.582031 8-8v-40c0-3.234375-1.949219-6.152344-4.9375-7.390625zm0 0"/><path d="m347.0625 200.609375c-2.988281-1.238281-6.429688-.554687-8.71875 1.734375l-96 96c-1.5 1.5-2.34375 3.535156-2.34375 5.65625v56c0 3.234375 1.949219 6.152344 4.9375 7.390625.96875.40625 2.011719.613281 3.0625.609375 2.121094 0 4.15625-.84375 5.65625-2.34375l96-96c1.5-1.5 2.34375-3.535156 2.34375-5.65625v-56c0-3.234375-1.949219-6.152344-4.9375-7.390625zm0 0"/><path d="m347.0625 312.609375c-2.988281-1.253906-6.4375-.566406-8.71875 1.734375l-56 56c-2.285156 2.289062-2.972656 5.730469-1.734375 8.71875s4.15625 4.9375 7.390625 4.9375h56c4.417969 0 8-3.582031 8-8v-56c0-3.234375-1.949219-6.152344-4.9375-7.390625zm0 0"/></g><path d="m96 368h120c4.417969 0 8 3.582031 8 8v80c0 4.417969-3.582031 8-8 8h-120c-4.417969 0-8-3.582031-8-8v-80c0-4.417969 3.582031-8 8-8zm0 0" fill="#7985eb"/><path d="m248 368h120c4.417969 0 8 3.582031 8 8v80c0 4.417969-3.582031 8-8 8h-120c-4.417969 0-8-3.582031-8-8v-80c0-4.417969 3.582031-8 8-8zm0 0" fill="#7985eb"/><path d="m72 80c-13.253906 0-24-10.746094-24-24 0-4.417969-3.582031-8-8-8s-8 3.582031-8 8c0 13.253906-10.746094 24-24 24-4.417969 0-8 3.582031-8 8s3.582031 8 8 8c13.253906 0 24 10.746094 24 24 0 4.417969 3.582031 8 8 8s8-3.582031 8-8c0-13.253906 10.746094-24 24-24 4.417969 0 8-3.582031 8-8s-3.582031-8-8-8zm0 0" fill="#ffdf47"/><path d="m456 192c-13.253906 0-24-10.746094-24-24 0-4.417969-3.582031-8-8-8s-8 3.582031-8 8c0 13.253906-10.746094 24-24 24-4.417969 0-8 3.582031-8 8s3.582031 8 8 8c13.253906 0 24 10.746094 24 24 0 4.417969 3.582031 8 8 8s8-3.582031 8-8c0-13.253906 10.746094-24 24-24 4.417969 0 8-3.582031 8-8s-3.582031-8-8-8zm0 0" fill="#ffdf47"/><path d="m128 424c-3.234375 0-6.152344-1.949219-7.390625-4.9375s-.550781-6.429688 1.734375-8.71875l8-8c3.140625-3.03125 8.128906-2.988281 11.214844.097656 3.085937 3.085938 3.128906 8.074219.097656 11.214844l-8 8c-1.5 1.5-3.535156 2.34375-5.65625 2.34375zm0 0" fill="#fec000"/><path d="m184 432h-16c-4.417969 0-8-3.582031-8-8s3.582031-8 8-8h16c4.417969 0 8 3.582031 8 8s-3.582031 8-8 8zm0 0" fill="#fec000"/><path d="m328 432c-3.234375 0-6.152344-1.949219-7.390625-4.9375s-.550781-6.429688 1.734375-8.71875l8-8c3.140625-3.03125 8.128906-2.988281 11.214844.097656 3.085937 3.085938 3.128906 8.074219.097656 11.214844l-8 8c-1.5 1.5-3.535156 2.34375-5.65625 2.34375zm0 0" fill="#fec000"/><path d="m296 416h-16c-4.417969 0-8-3.582031-8-8s3.582031-8 8-8h16c4.417969 0 8 3.582031 8 8s-3.582031 8-8 8zm0 0" fill="#fec000"/><path d="m208 48h48v416h-48zm0 0" fill="#e1e4fb"/></svg>