<?xml version="1.0"?>
<svg xmlns="http://www.w3.org/2000/svg" height="512px" viewBox="-72 0 464 464" width="512px" class=""><g><path d="m256.992188 184.480469c9.507812-7.578125 15.035156-19.082031 15.007812-31.242188v-113.238281c0-4.417969-3.582031-8-8-8h-208c-4.417969 0-8 3.582031-8 8v113.238281c-.015625 12.144531 5.511719 23.632813 15.007812 31.203125l55.6875 44.535156c6.003907 4.835938 9.4375 12.171876 9.304688 19.878907.019531 7.535156-3.40625 14.664062-9.304688 19.351562l-55.6875 44.59375c-9.496093 7.566407-15.023437 19.054688-15.007812 31.199219v80c0 4.417969 3.582031 8 8 8h208c4.417969 0 8-3.582031 8-8v-80c.015625-12.144531-5.511719-23.632812-15.007812-31.199219l-55.6875-44.5625c-5.890626-4.800781-9.308594-11.996093-9.308594-19.597656s3.417968-14.796875 9.308594-19.601563zm0 0" fill="#cae8f9" data-original="#CAE8F9" class=""/><path d="m168 315.566406v-123.566406c17.671875 0 32-14.328125 32-32s-14.328125-32-32-32h-16c-8.835938 0-16-7.164062-16-16s7.164062-16 16-16h24c4.417969 0 8-3.582031 8-8s-3.582031-8-8-8h-8v-8c0-4.417969-3.582031-8-8-8s-8 3.582031-8 8v8c-17.671875 0-32 14.328125-32 32s14.328125 32 32 32h16c8.835938 0 16 7.164062 16 16s-7.164062 16-16 16h-32c-4.417969 0-8 3.582031-8 8s3.582031 8 8 8h16v123.566406c-39.390625 24.625-80 65.234375-80 108.433594 0 4.417969 3.582031 8 8 8h160c4.417969 0 8-3.582031 8-8 0-43.199219-40.609375-83.808594-80-108.433594zm0 0" fill="#ffb74f" data-original="#FFB74F" class=""/><g fill="#00acea"><path d="m296 416h-272c-13.253906 0-24 10.746094-24 24s10.746094 24 24 24h272c13.253906 0 24-10.746094 24-24s-10.746094-24-24-24zm0 0" data-original="#00ACEA" class="active-path" style="fill:#7621FF" data-old_color="#00ACEA"/><path d="m24 48h272c13.253906 0 24-10.746094 24-24s-10.746094-24-24-24h-272c-13.253906 0-24 10.746094-24 24s10.746094 24 24 24zm0 0" data-original="#00ACEA" class="active-path" style="fill:#7621FF" data-old_color="#00ACEA"/></g></g> </svg>
