<?xml version="1.0" encoding="iso-8859-1"?>
<!-- Generator: Adobe Illustrator 19.0.0, SVG Export Plug-In . SVG Version: 6.00 Build 0)  -->
<svg version="1.1" id="Layer_1" xmlns="http://www.w3.org/2000/svg" xmlns:xlink="http://www.w3.org/1999/xlink" x="0px" y="0px"
	 viewBox="0 0 512 512" style="enable-background:new 0 0 512 512;" xml:space="preserve">
<g>
	<path style="fill:#35495C;" d="M362.64,160.018h64.8l-116.72-133.2c-2.856-3.376-7.904-3.8-11.272-0.944
		c-0.056,0.048-0.112,0.096-0.168,0.144l-24.48,21.36c-3.376,2.856-3.8,7.904-0.944,11.272c0.048,0.056,0.096,0.112,0.144,0.168
		L362.64,160.018z"/>
	<path style="fill:#35495C;" d="M149.36,160.018L238,58.898c2.944-3.296,2.664-8.352-0.632-11.296
		c-0.056-0.048-0.112-0.096-0.168-0.144l-24.48-21.44c-3.296-2.944-8.352-2.664-11.296,0.632c-0.048,0.056-0.096,0.112-0.144,0.168
		l-116.72,133.2H149.36z"/>
</g>
<path style="fill:#F6B545;" d="M434.88,488.018H77.12c-16.576,0.072-30.464-12.536-32-29.04L24,232.018h464l-21.28,226.96
	C465.192,475.426,451.4,488.01,434.88,488.018z"/>
<g>
	<path style="fill:#E78825;" d="M240,416.018L240,416.018v-88l0,0c0-8.84-7.16-16-16-16s-16,7.16-16,16l0,0v88l0,0
		c0,8.84,7.16,16,16,16S240,424.858,240,416.018z"/>
	<path style="fill:#E78825;" d="M368,416.018L368,416.018v-88l0,0c0-8.84-7.16-16-16-16s-16,7.16-16,16l0,0v88l0,0
		c0,8.84,7.16,16,16,16S368,424.858,368,416.018z"/>
	<path style="fill:#E78825;" d="M304,416.018L304,416.018v-88l0,0c0-8.84-7.16-16-16-16s-16,7.16-16,16l0,0v88l0,0
		c0,8.84,7.16,16,16,16S304,424.858,304,416.018z"/>
	<path style="fill:#E78825;" d="M176,416.018L176,416.018v-88l0,0c0-8.84-7.16-16-16-16s-16,7.16-16,16l0,0v88l0,0
		c0,8.84,7.16,16,16,16S176,424.858,176,416.018z"/>
</g>
<path style="fill:#F6B545;" d="M16,160.018h480c8.84,0,16,7.16,16,16v64c0,8.84-7.16,16-16,16H16c-8.84,0-16-7.16-16-16v-64
	C0,167.186,7.16,160.018,16,160.018z"/>
<g>
	<circle style="fill:#F19920;" cx="88" cy="216.002" r="16"/>
	<circle style="fill:#F19920;" cx="424" cy="216.002" r="16"/>
</g>
<g>
	<circle style="fill:#35495C;" cx="84" cy="208.002" r="16"/>
	<circle style="fill:#35495C;" cx="420" cy="208.002" r="16"/>
</g>
<path style="fill:#F19920;" d="M485.2,256.018H26.8c1.056,9.104,8.752,15.976,17.92,16h422l-17.36,185.52
	c-0.784,8.24-7.728,14.52-16,14.48H96c-8.84,0-16,7.16-16,16h354.88c16.576,0.072,30.464-12.536,32-29.04l18.88-202.96H485.2z"/>
<path style="fill:#E78825;" d="M485.04,264.018l0.72-8H32c0,4.416,3.584,8,8,8H485.04z"/>
<path style="fill:#F19920;" d="M496,192.018v48H32c-8.84,0-16,7.16-16,16h480c8.84,0,16-7.16,16-16v-64l0,0
	C503.16,176.018,496,183.186,496,192.018z"/>
<g>
	<path style="fill:#123247;" d="M149.36,160.018L238,58.898c2.944-3.296,2.664-8.352-0.632-11.296
		c-0.056-0.048-0.112-0.096-0.168-0.144c-6.872-6.032-17.336-5.352-23.368,1.52c-0.024,0.024-0.048,0.056-0.072,0.08l-97.2,110.96
		H149.36z"/>
	<path style="fill:#123247;" d="M362.64,160.018h32.8l-97.28-111.04c-5.992-6.912-16.448-7.656-23.36-1.672
		c-0.024,0.024-0.056,0.048-0.08,0.072c-3.376,2.856-3.8,7.904-0.944,11.272c0.048,0.056,0.096,0.112,0.144,0.168L362.64,160.018z"
		/>
</g>
<g>
</g>
<g>
</g>
<g>
</g>
<g>
</g>
<g>
</g>
<g>
</g>
<g>
</g>
<g>
</g>
<g>
</g>
<g>
</g>
<g>
</g>
<g>
</g>
<g>
</g>
<g>
</g>
<g>
</g>
</svg>
