<?xml version="1.0"?>
<svg xmlns="http://www.w3.org/2000/svg" height="512px" viewBox="0 0 400 400" width="512px" class=""><g><g fill="#ffde60"><path d="m88 184c-11.664062 0-32-20.335938-32-32 0-4.417969-3.582031-8-8-8s-8 3.582031-8 8c0 11.664062-20.335938 32-32 32-4.417969 0-8 3.582031-8 8s3.582031 8 8 8c11.664062 0 32 20.335938 32 32 0 4.417969 3.582031 8 8 8s8-3.582031 8-8c0-11.664062 20.335938-32 32-32 4.417969 0 8-3.582031 8-8s-3.582031-8-8-8zm0 0" data-original="#FFDE60" class=""/><path d="m392 120c-11.664062 0-32-20.335938-32-32 0-4.417969-3.582031-8-8-8s-8 3.582031-8 8c0 11.664062-20.335938 32-32 32-4.417969 0-8 3.582031-8 8s3.582031 8 8 8c11.664062 0 32 20.335938 32 32 0 4.417969 3.582031 8 8 8s8-3.582031 8-8c0-11.664062 20.335938-32 32-32 4.417969 0 8-3.582031 8-8s-3.582031-8-8-8zm0 0" data-original="#FFDE60" class=""/><path d="m384 264c-11.664062 0-32-20.335938-32-32 0-4.417969-3.582031-8-8-8s-8 3.582031-8 8c0 11.664062-20.335938 32-32 32-4.417969 0-8 3.582031-8 8s3.582031 8 8 8c11.664062 0 32 20.335938 32 32 0 4.417969 3.582031 8 8 8s8-3.582031 8-8c0-11.664062 20.335938-32 32-32 4.417969 0 8-3.582031 8-8s-3.582031-8-8-8zm0 0" data-original="#FFDE60" class=""/></g><path d="m184 176h32c4.417969 0 8 3.582031 8 8v48c0 4.417969-3.582031 8-8 8h-32c-4.417969 0-8-3.582031-8-8v-48c0-4.417969 3.582031-8 8-8zm0 0" fill="#feb03f" data-original="#FEB03F" class="" data-old_color="#feb03f" style="fill:#C7C7C7"/><path d="m216 176h-32c-4.417969 0-8 3.582031-8 8v23.527344c2.65625.308594 5.328125.464844 8 .472656h16v32h16c4.417969 0 8-3.582031 8-8v-48c0-4.417969-3.582031-8-8-8zm0 0" fill="#fbae04" data-original="#FBAE04" class="" data-old_color="#fbae04" style="fill:#E9E9E9"/><path d="m168 224h64c4.417969 0 8 3.582031 8 8v32c0 4.417969-3.582031 8-8 8h-64c-4.417969 0-8-3.582031-8-8v-32c0-4.417969 3.582031-8 8-8zm0 0" fill="#feb03f" data-original="#FEB03F" class="" data-old_color="#feb03f" style="fill:#C7C7C7"/><path d="m256 256h-112c-13.253906 0-24 10.746094-24 24v16c0 4.417969 3.582031 8 8 8h144c4.417969 0 8-3.582031 8-8v-16c0-13.253906-10.746094-24-24-24zm0 0" fill="#feb03f" data-original="#FEB03F" class="" data-old_color="#feb03f" style="fill:#C7C7C7"/><path d="m112 288h176c4.417969 0 8 3.582031 8 8v96c0 4.417969-3.582031 8-8 8h-176c-4.417969 0-8-3.582031-8-8v-96c0-4.417969 3.582031-8 8-8zm0 0" fill="#3153bf" data-original="#3153BF" class="" style="fill:#0082FB" data-old_color="#3153bf"/><path d="m288 288h-88v112h88c4.417969 0 8-3.582031 8-8v-96c0-4.417969-3.582031-8-8-8zm0 0" fill="#1c3fb1" data-original="#1C3FB1" class="" style="fill:#005BEA" data-old_color="#1c3fb1"/><path d="m152 320h96c4.417969 0 8 3.582031 8 8v32c0 4.417969-3.582031 8-8 8h-96c-4.417969 0-8-3.582031-8-8v-32c0-4.417969 3.582031-8 8-8zm0 0" fill="#426efe" data-original="#426EFE" class="" style="fill:#63B4FF" data-old_color="#426efe"/><path d="m120 112c-30.929688 0-56-25.070312-56-56s25.070312-56 56-56 56 25.070312 56 56c-.035156 30.914062-25.085938 55.964844-56 56zm0-96c-22.089844 0-40 17.910156-40 40s17.910156 40 40 40 40-17.910156 40-40c-.027344-22.082031-17.917969-39.972656-40-40zm0 0" fill="#feb03f" data-original="#FEB03F" class="" data-old_color="#feb03f" style="fill:#C7C7C7"/><path d="m280 112c-30.929688 0-56-25.070312-56-56s25.070312-56 56-56 56 25.070312 56 56c-.035156 30.914062-25.085938 55.964844-56 56zm0-96c-22.089844 0-40 17.910156-40 40s17.910156 40 40 40 40-17.910156 40-40c-.027344-22.082031-17.917969-39.972656-40-40zm0 0" fill="#feb03f" data-original="#FEB03F" class="" data-old_color="#feb03f" style="fill:#C7C7C7"/><path d="m280 0h-160c-4.417969 0-8 3.582031-8 8v112c.046875 39.746094 32.253906 71.953125 72 72h32c39.746094-.046875 71.953125-32.253906 72-72v-112c0-4.417969-3.582031-8-8-8zm0 0" fill="#feb03f" data-original="#FEB03F" class="" data-old_color="#feb03f" style="fill:#C7C7C7"/><path d="m200 40 7.550781 23.246094h24.449219l-19.777344 14.371094 7.554688 23.246093-19.777344-14.367187-19.777344 14.367187 7.554688-23.246093-19.777344-14.371094h24.449219zm0 0" fill="#fff8ee" data-original="#FFF8EE" class="active-path" data-old_color="#fff8ee" style="fill:#FFFFFF"/><path d="m224 160c-4.417969 0-8-3.582031-8-8s3.582031-8 8-8c13.253906 0 24-10.746094 24-24v-32c0-4.417969 3.582031-8 8-8s8 3.582031 8 8v32c-.027344 22.082031-17.917969 39.972656-40 40zm0 0" fill="#fec46f" data-original="#FEC46F" class="" style="fill:#F3F3F3" data-old_color="#fec46f"/><path d="m256 64c-4.417969 0-8-3.582031-8-8v-16c0-4.417969 3.582031-8 8-8s8 3.582031 8 8v16c0 4.417969-3.582031 8-8 8zm0 0" fill="#fec46f" data-original="#FEC46F" class="" style="fill:#F3F3F3" data-old_color="#fec46f"/></g> </svg>
