<?xml version="1.0"?>
<svg xmlns="http://www.w3.org/2000/svg" height="512px" viewBox="0 -96 512 512" width="512px" class=""><g><path d="m496 128c8.835938 0 16-7.164062 16-16v-96c0-8.835938-7.164062-16-16-16h-480c-8.835938 0-16 7.164062-16 16v96c0 8.835938 7.164062 16 16 16 17.671875 0 32 14.328125 32 32s-14.328125 32-32 32c-8.835938 0-16 7.164062-16 16v96c0 8.835938 7.164062 16 16 16h480c8.835938 0 16-7.164062 16-16v-96c0-8.835938-7.164062-16-16-16-17.671875 0-32-14.328125-32-32s14.328125-32 32-32zm0 0" fill="#00479b" data-original="#00479B" class="" style="fill:#2193FD" data-old_color="#00479b"/><g fill="#57a4ff"><path d="m384 80c-6.472656.019531-12.316406-3.875-14.789062-9.855469-2.476563-5.984375-1.085938-12.867187 3.507812-17.425781 6.324219-6 16.238281-6 22.5625 0 4.546875 4.574219 5.902344 11.433594 3.4375 17.394531-2.464844 5.960938-8.269531 9.859375-14.71875 9.886719zm0 0" data-original="#57A4FF" class="active-path" data-old_color="#57A4FF" style="fill:#FFFFFF"/><path d="m384 144c-8.808594-.066406-15.933594-7.191406-16-16 0-4.261719 1.699219-8.351562 4.71875-11.359375 6.355469-5.917969 16.207031-5.917969 22.5625 0 3.019531 3.007813 4.71875 7.097656 4.71875 11.359375-.066406 8.808594-7.191406 15.933594-16 16zm0 0" data-original="#57A4FF" class="active-path" data-old_color="#57A4FF" style="fill:#FFFFFF"/><path d="m384 208c-8.835938 0-16-7.164062-16-16-.011719-4.242188 1.691406-8.308594 4.71875-11.28125 6.324219-6 16.238281-6 22.5625 0 4.546875 4.574219 5.902344 11.433594 3.4375 17.394531-2.464844 5.960938-8.269531 9.859375-14.71875 9.886719zm0 0" data-original="#57A4FF" class="active-path" data-old_color="#57A4FF" style="fill:#FFFFFF"/><path d="m384 272c-6.464844.003906-12.296875-3.882812-14.78125-9.847656-2.488281-5.96875-1.136719-12.847656 3.421875-17.433594 6.347656-5.980469 16.25-6.015625 22.640625-.078125 3.019531 3.007813 4.71875 7.097656 4.71875 11.359375-.066406 8.808594-7.191406 15.933594-16 16zm0 0" data-original="#57A4FF" class="active-path" data-old_color="#57A4FF" style="fill:#FFFFFF"/></g><path d="m319.136719 138.808594c-1.621094-4.71875-5.347657-8.410156-10.082031-9.984375l-42.78125-14.273438-28.960938-43.421875c-2.96875-4.453125-7.964844-7.125-13.3125-7.125s-10.34375 2.671875-13.3125 7.125l-28.960938 43.421875-42.78125 14.25c-4.730468 1.574219-8.453124 5.265625-10.074218 9.984375-1.617188 4.714844-.945313 9.914063 1.816406 14.0625l29.3125 43.953125v43.199219c-.007812 5.144531 2.460938 9.980469 6.636719 12.992188 4.171875 3.011718 9.535156 3.832031 14.417969 2.207031l42.945312-14.335938 42.945312 14.335938c4.882813 1.625 10.246094.804687 14.417969-2.207031 4.175781-3.011719 6.644531-7.847657 6.636719-12.992188v-43.199219l29.3125-44c2.742188-4.128906 3.414062-9.296875 1.824219-13.992187zm0 0" fill="#ffcd00" data-original="#FFCD00" class="" style="fill:#ffcd00" data-old_color="#ffcd00"/></g> </svg>
