<?xml version="1.0" encoding="utf-8"?>
<!-- Generator: Adobe Illustrator 22.1.0, SVG Export Plug-In . SVG Version: 6.00 Build 0)  -->
<svg xmlns="http://www.w3.org/2000/svg" xmlns:xlink="http://www.w3.org/1999/xlink" version="1.1" x="0px" y="0px" viewBox="0 0 32 32" style="enable-background:new 0 0 32 32;" xml:space="preserve" width="512" height="512">
<style type="text/css">
	.st0{fill:#EDEFF0;}
	.st1{fill:#CFD8DC;}
	.st2{fill:#FAA629;}
	.st3{fill:#607D8B;}
	.st4{fill:#546F7A;}
	.st5{fill:#F8981D;}
	.st6{fill:#66BB6A;}
	.st7{fill:#4DAF4E;}
	.st8{fill:#37474F;}
	.st9{fill:#263238;}
	.st10{fill:#B0BEC5;}
	.st11{fill:#90A4AE;}
	.st12{fill:#78909C;}
	.st13{fill:#F37046;}
	.st14{display:none;}
</style>

<g id="_x31_9_Private_Storage">
	<g>
		<path class="st6" d="M16,1.9355469L4,6.2998047V16c0,10.9609375,11.6445313,13.9423828,11.7617188,13.9716797L16,30.0292969    l0.2382813-0.0576172C16.3554688,29.9423828,28,26.9609375,28,16V6.2998047L16,1.9355469z"/>
		<path class="st7" d="M16,1.9355469v28.09375l0.2382813-0.0576172C16.3554688,29.9423828,28,26.9609375,28,16V6.2998047    L16,1.9355469z"/>
		<g>
			<g>
				<polygon class="st0" points="14,21.4140625 9.2929688,16.7070313 10.7070313,15.2929688 14,18.5859375 21.2929688,11.2929688       22.7070313,12.7070313     "/>
			</g>
		</g>
		<polygon class="st1" points="16,19.4140625 22.7070313,12.7070313 21.2929688,11.2929688 16,16.5859375   "/>
	</g>
</g>



















</svg>
