<?xml version="1.0"?>
<svg xmlns="http://www.w3.org/2000/svg" viewBox="0 0 64 64" width="512px" height="512px" class=""><g><title>07 Teamwork</title><g id="_07_Teamwork" data-name="07 Teamwork"><path d="M27,24v8.83A4.181,4.181,0,0,1,23,37V53.21A3.847,3.847,0,0,1,19,57a3.919,3.919,0,0,1-2.99-1.36,3.949,3.949,0,0,1-1,.82,3.89,3.89,0,0,1-2,.54,3.993,3.993,0,0,1-3.99-3.98c0-9.6-.01-12.25-.01-14.06L9,37a4.01,4.01,0,0,1-4-4V24a7,7,0,0,1,6.57-6.98A3.1,3.1,0,0,1,12,17h8a3.1,3.1,0,0,1,.43.02A6.964,6.964,0,0,1,27,24Z" style="fill:#468EFF" data-original="#FF72BF" class="active-path" data-old_color="#FF72BF"/><path d="M9,24V37a3.989,3.989,0,0,1-2-.54V24a1,1,0,0,1,2,0Z" style="fill:#0082FB" data-original="#FF43A9" class="" data-old_color="#FF43A9"/><path d="M23,24V37a3.989,3.989,0,0,0,2-.54V24a1,1,0,0,0-2,0Z" style="fill:#0082FB" data-original="#FF43A9" class="" data-old_color="#FF43A9"/><path d="M11.56,17H12a3.1,3.1,0,0,0-.43.02Z" style="fill:#e8d4f9" data-original="#E8D4F9" class=""/><path d="M20.44,17l-.01.02A3.1,3.1,0,0,0,20,17Z" style="fill:#e8d4f9" data-original="#E8D4F9" class=""/><path d="M17.01,56.47a3.988,3.988,0,0,1-1-.83,3.949,3.949,0,0,1-1,.82L15,42a1,1,0,0,1,2,0Z" style="fill:#0082FB" data-original="#FF43A9" class="" data-old_color="#FF43A9"/><circle cx="16" cy="9" r="6" style="fill:#0082FB" data-original="#FFA1D4" class="" data-old_color="#FFA1D4"/><path d="M59,24v8.83A4.181,4.181,0,0,1,55,37V53.21A3.847,3.847,0,0,1,51,57a3.919,3.919,0,0,1-2.99-1.36,3.949,3.949,0,0,1-1,.82,3.89,3.89,0,0,1-2,.54,3.993,3.993,0,0,1-3.99-3.98c0-9.6-.01-12.25-.01-14.06L41,37a4.01,4.01,0,0,1-4-4V24a7,7,0,0,1,6.57-6.98A3.1,3.1,0,0,1,44,17h8a3.1,3.1,0,0,1,.43.02A6.964,6.964,0,0,1,59,24Z" style="fill:#468EFF" data-original="#FF72BF" class="active-path" data-old_color="#FF72BF"/><path d="M41,24V37a3.989,3.989,0,0,1-2-.54V24a1,1,0,0,1,2,0Z" style="fill:#0082FB" data-original="#FF43A9" class="" data-old_color="#FF43A9"/><path d="M55,24V37a3.989,3.989,0,0,0,2-.54V24a1,1,0,0,0-2,0Z" style="fill:#0082FB" data-original="#FF43A9" class="" data-old_color="#FF43A9"/><path d="M43.56,17H44a3.1,3.1,0,0,0-.43.02Z" style="fill:#e8d4f9" data-original="#E8D4F9" class=""/><path d="M52.44,17l-.01.02A3.1,3.1,0,0,0,52,17Z" style="fill:#e8d4f9" data-original="#E8D4F9" class=""/><path d="M49.01,56.47a3.988,3.988,0,0,1-1-.83,3.949,3.949,0,0,1-1,.82L47,42a1,1,0,0,1,2,0Z" style="fill:#0082FB" data-original="#FF43A9" class="" data-old_color="#FF43A9"/><circle cx="48" cy="9" r="6" style="fill:#0082FB" data-original="#FFA1D4" class="" data-old_color="#FFA1D4"/><circle cx="32" cy="13" r="6" style="fill:#9F64FF" data-original="#B97FEE" class="" data-old_color="#B97FEE"/><path d="M43,28v8.83A4.181,4.181,0,0,1,39,41V57.21A3.847,3.847,0,0,1,35,61a3.919,3.919,0,0,1-2.99-1.36,3.949,3.949,0,0,1-1,.82,3.89,3.89,0,0,1-2,.54,3.993,3.993,0,0,1-3.99-3.98c0-9.6-.01-12.25-.01-14.06L25,41a4.01,4.01,0,0,1-4-4V28a7.008,7.008,0,0,1,7-7h1a1.007,1.007,0,0,1,.94.65L32,27.15l2.06-5.5A1.007,1.007,0,0,1,35,21h1a7.082,7.082,0,0,1,2.58.49A6.968,6.968,0,0,1,43,28Z" style="fill:#7621FF" data-original="#8A2AE3" class="" data-old_color="#8A2AE3"/><path d="M33.01,60.47a3.988,3.988,0,0,1-1-.83,3.949,3.949,0,0,1-1,.82L31,46a1,1,0,0,1,2,0Z" style="fill:#6820aa" data-original="#6820AA" class=""/><path d="M25,28V41a3.989,3.989,0,0,1-2-.54V28a1,1,0,0,1,2,0Z" style="fill:#6820aa" data-original="#6820AA" class=""/><path d="M39,28V41a3.989,3.989,0,0,0,2-.54V28a1,1,0,0,0-2,0Z" style="fill:#6820aa" data-original="#6820AA" class=""/><path d="M36.443,21H27.557l3.506,9.351a1,1,0,0,0,1.874,0Z" style="fill:#e8d4f9" data-original="#E8D4F9" class=""/></g></g> </svg>
